<svg width="182" height="38" viewBox="0 0 182 38" fill="none" xmlns="http://www.w3.org/2000/svg">
<path d="M20.9234 30.506C20.9575 27.0182 20.0733 24.1818 18.9485 24.1708C17.8236 24.1599 16.8841 26.9784 16.85 30.4662C16.8159 33.9541 17.7002 36.7905 18.825 36.8014C19.9498 36.8124 20.8894 33.9939 20.9234 30.506Z" fill="white"/>
<path d="M14.3997 29.7139C16.3142 26.7982 17.1039 23.9341 16.1637 23.3166C15.2233 22.6992 12.9091 24.5623 10.9946 27.478C9.0801 30.3936 8.29038 33.2577 9.23065 33.8752C10.171 34.4926 12.4852 32.6295 14.3997 29.7139Z" fill="white"/>
<path d="M9.3322 25.5307C12.5192 24.1131 14.7321 22.1307 14.2749 21.1029C13.8177 20.0751 10.8636 20.3911 7.67661 21.8087C4.48966 23.2263 2.27674 25.2087 2.73392 26.2365C3.19109 27.2643 6.14524 26.9483 9.3322 25.5307Z" fill="white"/>
<path d="M13.8923 18.2206C14.0635 17.1088 11.4075 15.7774 7.96016 15.2467C4.51271 14.7161 1.57931 15.1873 1.40819 16.2991C1.23706 17.4109 3.89302 18.7423 7.34044 19.2729C10.7878 19.8036 13.7213 19.3324 13.8923 18.2206Z" fill="white"/>
<path d="M15.1301 15.572C15.875 14.7292 14.3602 12.1734 11.7466 9.86351C9.13308 7.55365 6.41047 6.36444 5.66554 7.20732C4.9206 8.05022 6.43543 10.606 9.04903 12.9159C11.6626 15.2258 14.3852 16.4149 15.1301 15.572Z" fill="white"/>
<path d="M17.5951 14.0241C18.6775 13.7178 18.785 10.7488 17.8353 7.39255C16.8856 4.03632 15.2382 1.56386 14.1558 1.87015C13.0734 2.17643 12.9659 5.14548 13.9156 8.50174C14.8653 11.8579 16.5127 14.3304 17.5951 14.0241Z" fill="white"/>
<path d="M24.2884 8.60616C25.3041 5.26931 25.2552 2.29871 24.179 1.97114C23.1029 1.64357 21.4071 4.08306 20.3913 7.41991C19.3757 10.7567 19.4246 13.7273 20.5008 14.0549C21.5769 14.3825 23.2727 11.943 24.2884 8.60616Z" fill="white"/>
<path d="M29.0711 13.1149C31.7293 10.8566 33.2939 8.33089 32.5655 7.47363C31.8372 6.61635 29.0918 7.75215 26.4336 10.0104C23.7754 12.2688 22.2109 14.7945 22.9392 15.6517C23.6675 16.509 26.4129 15.3733 29.0711 13.1149Z" fill="white"/>
<path d="M30.6525 19.4954C34.1097 19.0329 36.7914 17.7541 36.6422 16.6391C36.4931 15.5242 33.5695 14.9953 30.1123 15.4578C26.6551 15.9203 23.9734 17.1991 24.1226 18.3141C24.2717 19.429 27.1952 19.958 30.6525 19.4954Z" fill="white"/>
<path d="M35.1123 26.5552C35.5897 25.5366 33.4163 23.511 30.2579 22.0308C27.0995 20.5506 24.1522 20.1765 23.6748 21.195C23.1975 22.2137 25.3708 24.2393 28.5293 25.7195C31.6876 27.1996 34.6349 27.5738 35.1123 26.5552Z" fill="white"/>
<path d="M28.4688 34.0707C29.421 33.472 28.6879 30.5928 26.8313 27.64C24.9747 24.6872 22.6976 22.7789 21.7453 23.3776C20.7931 23.9763 21.5262 26.8555 23.3828 29.8083C25.2394 32.7612 27.5165 34.6695 28.4688 34.0707Z" fill="white"/>
<path d="M56.952 26.654C55.8227 26.654 54.8107 26.4707 53.916 26.104C53.0213 25.7373 52.3027 25.1947 51.76 24.476C51.232 23.7573 50.9533 22.892 50.924 21.88H54.928C54.9867 22.452 55.1847 22.892 55.522 23.2C55.8593 23.4933 56.2993 23.64 56.842 23.64C57.3993 23.64 57.8393 23.5153 58.162 23.266C58.4847 23.002 58.646 22.6427 58.646 22.188C58.646 21.8067 58.514 21.4913 58.25 21.242C58.0007 20.9927 57.6853 20.7873 57.304 20.626C56.9373 20.4647 56.4093 20.2813 55.72 20.076C54.7227 19.768 53.9087 19.46 53.278 19.152C52.6473 18.844 52.1047 18.3893 51.65 17.788C51.1953 17.1867 50.968 16.402 50.968 15.434C50.968 13.9967 51.4887 12.8747 52.53 12.068C53.5713 11.2467 54.928 10.836 56.6 10.836C58.3013 10.836 59.6727 11.2467 60.714 12.068C61.7553 12.8747 62.3127 14.004 62.386 15.456H58.316C58.2867 14.9573 58.1033 14.5687 57.766 14.29C57.4287 13.9967 56.996 13.85 56.468 13.85C56.0133 13.85 55.6467 13.9747 55.368 14.224C55.0893 14.4587 54.95 14.8033 54.95 15.258C54.95 15.7567 55.1847 16.1453 55.654 16.424C56.1233 16.7027 56.8567 17.0033 57.854 17.326C58.8513 17.6633 59.658 17.986 60.274 18.294C60.9047 18.602 61.4473 19.0493 61.902 19.636C62.3567 20.2227 62.584 20.978 62.584 21.902C62.584 22.782 62.3567 23.5813 61.902 24.3C61.462 25.0187 60.8167 25.5907 59.966 26.016C59.1153 26.4413 58.1107 26.654 56.952 26.654ZM72.4452 14.092C73.8532 14.092 74.9825 14.5613 75.8332 15.5C76.6838 16.424 77.1092 17.7 77.1092 19.328V26.5H73.3692V19.834C73.3692 19.0127 73.1565 18.3747 72.7312 17.92C72.3058 17.4653 71.7338 17.238 71.0152 17.238C70.2965 17.238 69.7245 17.4653 69.2992 17.92C68.8738 18.3747 68.6612 19.0127 68.6612 19.834V26.5H64.8992V10.22H68.6612V15.874C69.0425 15.3313 69.5632 14.8987 70.2232 14.576C70.8832 14.2533 71.6238 14.092 72.4452 14.092ZM78.9754 20.34C78.9754 19.0787 79.21 17.9713 79.6794 17.018C80.1634 16.0647 80.816 15.3313 81.6374 14.818C82.4587 14.3047 83.3754 14.048 84.3874 14.048C85.2527 14.048 86.008 14.224 86.6534 14.576C87.3134 14.928 87.8194 15.39 88.1714 15.962V14.224H91.9334V26.5H88.1714V24.762C87.8047 25.334 87.2914 25.796 86.6314 26.148C85.986 26.5 85.2307 26.676 84.3654 26.676C83.368 26.676 82.4587 26.4193 81.6374 25.906C80.816 25.378 80.1634 24.6373 79.6794 23.684C79.21 22.716 78.9754 21.6013 78.9754 20.34ZM88.1714 20.362C88.1714 19.4233 87.9074 18.6827 87.3794 18.14C86.866 17.5973 86.2354 17.326 85.4874 17.326C84.7394 17.326 84.1014 17.5973 83.5734 18.14C83.06 18.668 82.8034 19.4013 82.8034 20.34C82.8034 21.2787 83.06 22.0267 83.5734 22.584C84.1014 23.1267 84.7394 23.398 85.4874 23.398C86.2354 23.398 86.866 23.1267 87.3794 22.584C87.9074 22.0413 88.1714 21.3007 88.1714 20.362ZM107.195 14.224L99.495 32.33H95.447L98.263 26.082L93.269 14.224H97.471L100.309 21.902L103.125 14.224H107.195ZM116.035 14.092C117.473 14.092 118.617 14.5613 119.467 15.5C120.333 16.424 120.765 17.7 120.765 19.328V26.5H117.025V19.834C117.025 19.0127 116.813 18.3747 116.387 17.92C115.962 17.4653 115.39 17.238 114.671 17.238C113.953 17.238 113.381 17.4653 112.955 17.92C112.53 18.3747 112.317 19.0127 112.317 19.834V26.5H108.555V14.224H112.317V15.852C112.699 15.3093 113.212 14.884 113.857 14.576C114.503 14.2533 115.229 14.092 116.035 14.092ZM122.632 20.34C122.632 19.0787 122.866 17.9713 123.336 17.018C123.82 16.0647 124.472 15.3313 125.294 14.818C126.115 14.3047 127.032 14.048 128.044 14.048C128.909 14.048 129.664 14.224 130.31 14.576C130.97 14.928 131.476 15.39 131.828 15.962V14.224H135.59V26.5H131.828V24.762C131.461 25.334 130.948 25.796 130.288 26.148C129.642 26.5 128.887 26.676 128.022 26.676C127.024 26.676 126.115 26.4193 125.294 25.906C124.472 25.378 123.82 24.6373 123.336 23.684C122.866 22.716 122.632 21.6013 122.632 20.34ZM131.828 20.362C131.828 19.4233 131.564 18.6827 131.036 18.14C130.522 17.5973 129.892 17.326 129.144 17.326C128.396 17.326 127.758 17.5973 127.23 18.14C126.716 18.668 126.46 19.4013 126.46 20.34C126.46 21.2787 126.716 22.0267 127.23 22.584C127.758 23.1267 128.396 23.398 129.144 23.398C129.892 23.398 130.522 23.1267 131.036 22.584C131.564 22.0413 131.828 21.3007 131.828 20.362ZM142.073 23.596H147.001V26.5H138.311V11.056H142.073V23.596ZM166.286 11.056V26.5H162.524V17.238L159.07 26.5H156.034L152.558 17.216V26.5H148.796V11.056H153.24L157.574 21.748L161.864 11.056H166.286ZM174.579 26.654C173.45 26.654 172.438 26.4707 171.543 26.104C170.648 25.7373 169.93 25.1947 169.387 24.476C168.859 23.7573 168.58 22.892 168.551 21.88H172.555C172.614 22.452 172.812 22.892 173.149 23.2C173.486 23.4933 173.926 23.64 174.469 23.64C175.026 23.64 175.466 23.5153 175.789 23.266C176.112 23.002 176.273 22.6427 176.273 22.188C176.273 21.8067 176.141 21.4913 175.877 21.242C175.628 20.9927 175.312 20.7873 174.931 20.626C174.564 20.4647 174.036 20.2813 173.347 20.076C172.35 19.768 171.536 19.46 170.905 19.152C170.274 18.844 169.732 18.3893 169.277 17.788C168.822 17.1867 168.595 16.402 168.595 15.434C168.595 13.9967 169.116 12.8747 170.157 12.068C171.198 11.2467 172.555 10.836 174.227 10.836C175.928 10.836 177.3 11.2467 178.341 12.068C179.382 12.8747 179.94 14.004 180.013 15.456H175.943C175.914 14.9573 175.73 14.5687 175.393 14.29C175.056 13.9967 174.623 13.85 174.095 13.85C173.64 13.85 173.274 13.9747 172.995 14.224C172.716 14.4587 172.577 14.8033 172.577 15.258C172.577 15.7567 172.812 16.1453 173.281 16.424C173.75 16.7027 174.484 17.0033 175.481 17.326C176.478 17.6633 177.285 17.986 177.901 18.294C178.532 18.602 179.074 19.0493 179.529 19.636C179.984 20.2227 180.211 20.978 180.211 21.902C180.211 22.782 179.984 23.5813 179.529 24.3C179.089 25.0187 178.444 25.5907 177.593 26.016C176.742 26.4413 175.738 26.654 174.579 26.654Z" fill="white"/>
</svg>
