<svg width="20" height="20" viewBox="0 0 20 20" fill="none" xmlns="http://www.w3.org/2000/svg">
<path opacity="0.4" d="M13.975 15.8167H6.025C5.675 15.8167 5.35834 15.5917 5.24167 15.2667L1.775 5.55835C1.5 4.78335 2.38334 4.12501 3.04167 4.60001L6.375 6.98335C6.81667 7.30001 7.45 7.10835 7.64167 6.60001L9.21667 2.40001C9.48334 1.67501 10.5083 1.67501 10.775 2.40001L12.35 6.60001C12.5417 7.11668 13.1667 7.30001 13.6167 6.98335L16.95 4.60001C17.6167 4.12501 18.4917 4.79168 18.2167 5.55835L14.75 15.2667C14.6417 15.5917 14.325 15.8167 13.975 15.8167Z" fill="#662FFF"/>
<path d="M14.1667 18.3333H5.83333C5.49166 18.3333 5.20833 18.05 5.20833 17.7083C5.20833 17.3666 5.49166 17.0833 5.83333 17.0833H14.1667C14.5083 17.0833 14.7917 17.3666 14.7917 17.7083C14.7917 18.05 14.5083 18.3333 14.1667 18.3333Z" fill="#662FFF"/>
<path d="M12.0833 12.2917H7.91667C7.57501 12.2917 7.29167 12.0084 7.29167 11.6667C7.29167 11.325 7.57501 11.0417 7.91667 11.0417H12.0833C12.425 11.0417 12.7083 11.325 12.7083 11.6667C12.7083 12.0084 12.425 12.2917 12.0833 12.2917Z" fill="#662FFF"/>
</svg>
