<svg width="24" height="24" viewBox="0 0 24 24" fill="none" xmlns="http://www.w3.org/2000/svg">
<path opacity="0.4" d="M18 20.5H17V20.25C17 19.15 16.1 18.25 15 18.25H12.75V15.96C12.5 15.99 12.25 16 12 16C11.75 16 11.5 15.99 11.25 15.96V18.25H9C7.9 18.25 7 19.15 7 20.25V20.5H6C5.59 20.5 5.25 20.84 5.25 21.25C5.25 21.66 5.59 22 6 22H18C18.41 22 18.75 21.66 18.75 21.25C18.75 20.84 18.41 20.5 18 20.5Z" fill="white"/>
<path opacity="0.4" d="M5.52003 11.64C4.86003 11.39 4.28003 10.98 3.82003 10.52C2.89003 9.49 2.28003 8.26 2.28003 6.82C2.28003 5.38 3.41003 4.25 4.85003 4.25H5.41003C5.15003 4.78 5.00003 5.37 5.00003 6V9C5.00003 9.94 5.18003 10.83 5.52003 11.64Z" fill="white"/>
<path opacity="0.4" d="M21.72 6.82C21.72 8.26 21.11 9.49 20.18 10.52C19.72 10.98 19.14 11.39 18.48 11.64C18.82 10.83 19 9.94 19 9V6C19 5.37 18.85 4.78 18.59 4.25H19.15C20.59 4.25 21.72 5.38 21.72 6.82Z" fill="white"/>
<path d="M15 2H9C6.79 2 5 3.79 5 6V9C5 12.87 8.13 16 12 16C15.87 16 19 12.87 19 9V6C19 3.79 17.21 2 15 2ZM14.84 8.45L14.22 9.21C14.12 9.32 14.05 9.54 14.06 9.69L14.12 10.67C14.16 11.27 13.73 11.58 13.17 11.36L12.26 11C12.12 10.95 11.88 10.95 11.74 11L10.83 11.36C10.27 11.58 9.84 11.27 9.88 10.67L9.94 9.69C9.95 9.54 9.88 9.32 9.78 9.21L9.16 8.45C8.77 7.99 8.94 7.48 9.52 7.33L10.47 7.09C10.62 7.05 10.8 6.91 10.88 6.78L11.41 5.96C11.74 5.45 12.26 5.45 12.59 5.96L13.12 6.78C13.2 6.91 13.38 7.05 13.53 7.09L14.48 7.33C15.06 7.48 15.23 7.99 14.84 8.45Z" fill="white"/>
<path opacity="0.4" d="M14.84 8.45001L14.22 9.21001C14.12 9.32001 14.05 9.54001 14.06 9.69001L14.12 10.67C14.16 11.27 13.73 11.58 13.17 11.36L12.26 11C12.12 10.95 11.88 10.95 11.74 11L10.83 11.36C10.27 11.58 9.83999 11.27 9.87999 10.67L9.93999 9.69001C9.94999 9.54001 9.87999 9.32001 9.77999 9.21001L9.15999 8.45001C8.76999 7.99001 8.93999 7.48001 9.51999 7.33001L10.47 7.09001C10.62 7.05001 10.8 6.91001 10.88 6.78001L11.41 5.96001C11.74 5.45001 12.26 5.45001 12.59 5.96001L13.12 6.78001C13.2 6.91001 13.38 7.05001 13.53 7.09001L14.48 7.33001C15.06 7.48001 15.23 7.99001 14.84 8.45001Z" fill="white"/>
</svg>
