<svg width="32" height="33" viewBox="0 0 32 33" fill="none" xmlns="http://www.w3.org/2000/svg">
<path opacity="0.4" d="M24 27.8334H22.6667V27.5C22.6667 26.0334 21.4667 24.8334 20 24.8334H17V21.78C16.6667 21.82 16.3333 21.8334 16 21.8334C15.6667 21.8334 15.3333 21.82 15 21.78V24.8334H12C10.5333 24.8334 9.33333 26.0334 9.33333 27.5V27.8334H8C7.45333 27.8334 7 28.2867 7 28.8334C7 29.38 7.45333 29.8334 8 29.8334H24C24.5467 29.8334 25 29.38 25 28.8334C25 28.2867 24.5467 27.8334 24 27.8334Z" fill="#662FFF"/>
<path opacity="0.4" d="M7.35998 16.02C6.47998 15.6866 5.70664 15.14 5.09331 14.5266C3.85331 13.1533 3.03998 11.5133 3.03998 9.59329C3.03998 7.67329 4.54664 6.16663 6.46664 6.16663H7.21331C6.86664 6.87329 6.66664 7.65996 6.66664 8.49996V12.5C6.66664 13.7533 6.90664 14.94 7.35998 16.02Z" fill="#662FFF"/>
<path opacity="0.4" d="M28.96 9.59329C28.96 11.5133 28.1467 13.1533 26.9067 14.5266C26.2933 15.14 25.52 15.6866 24.64 16.02C25.0933 14.94 25.3333 13.7533 25.3333 12.5V8.49996C25.3333 7.65996 25.1333 6.87329 24.7867 6.16663H25.5333C27.4533 6.16663 28.96 7.67329 28.96 9.59329Z" fill="#662FFF"/>
<path d="M20 3.16663H12C9.05335 3.16663 6.66669 5.55329 6.66669 8.49996V12.5C6.66669 17.66 10.84 21.8333 16 21.8333C21.16 21.8333 25.3334 17.66 25.3334 12.5V8.49996C25.3334 5.55329 22.9467 3.16663 20 3.16663ZM19.7867 11.7666L18.96 12.78C18.8267 12.9266 18.7334 13.22 18.7467 13.42L18.8267 14.7266C18.88 15.5266 18.3067 15.94 17.56 15.6466L16.3467 15.1666C16.16 15.1 15.84 15.1 15.6534 15.1666L14.44 15.6466C13.6934 15.94 13.12 15.5266 13.1734 14.7266L13.2534 13.42C13.2667 13.22 13.1734 12.9266 13.04 12.78L12.2134 11.7666C11.6934 11.1533 11.92 10.4733 12.6934 10.2733L13.96 9.95329C14.16 9.89996 14.4 9.71329 14.5067 9.53996L15.2134 8.44663C15.6534 7.76663 16.3467 7.76663 16.7867 8.44663L17.4934 9.53996C17.6 9.71329 17.84 9.89996 18.04 9.95329L19.3067 10.2733C20.08 10.4733 20.3067 11.1533 19.7867 11.7666Z" fill="#662FFF"/>
<path opacity="0.4" d="M19.7867 11.7666L18.96 12.78C18.8267 12.9266 18.7333 13.22 18.7467 13.42L18.8267 14.7266C18.88 15.5266 18.3067 15.94 17.56 15.6466L16.3467 15.1666C16.16 15.1 15.84 15.1 15.6533 15.1666L14.44 15.6466C13.6933 15.94 13.12 15.5266 13.1733 14.7266L13.2533 13.42C13.2667 13.22 13.1733 12.9266 13.04 12.78L12.2133 11.7666C11.6933 11.1533 11.92 10.4733 12.6933 10.2733L13.96 9.95331C14.16 9.89998 14.4 9.71331 14.5067 9.53998L15.2133 8.44665C15.6533 7.76665 16.3467 7.76665 16.7867 8.44665L17.4933 9.53998C17.6 9.71331 17.84 9.89998 18.04 9.95331L19.3067 10.2733C20.08 10.4733 20.3067 11.1533 19.7867 11.7666Z" fill="#662FFF"/>
</svg>
