<svg width="48" height="48" viewBox="0 0 48 48" fill="none" xmlns="http://www.w3.org/2000/svg">
<circle cx="24" cy="24" r="24" fill="#FF435A"/>
<path d="M31.5 18.9833C28.725 18.7083 25.9333 18.5667 23.15 18.5667C21.5 18.5667 19.85 18.65 18.2 18.8167L16.5 18.9833" stroke="white" stroke-width="2" stroke-linecap="round" stroke-linejoin="round"/>
<path d="M21.0833 18.1417L21.2666 17.05C21.3999 16.2584 21.4999 15.6667 22.9083 15.6667H25.0916C26.4999 15.6667 26.6083 16.2917 26.7333 17.0584L26.9166 18.1417" stroke="white" stroke-width="2" stroke-linecap="round" stroke-linejoin="round"/>
<path d="M29.7084 21.6166L29.1667 30.0083C29.0751 31.3166 29.0001 32.3333 26.6751 32.3333H21.3251C19.0001 32.3333 18.9251 31.3166 18.8334 30.0083L18.2917 21.6166" stroke="white" stroke-width="2" stroke-linecap="round" stroke-linejoin="round"/>
<path d="M22.6084 27.75H25.3834" stroke="white" stroke-width="2" stroke-linecap="round" stroke-linejoin="round"/>
<path d="M21.9167 24.4167H26.0834" stroke="white" stroke-width="2" stroke-linecap="round" stroke-linejoin="round"/>
</svg>
