<svg width="46" height="46" viewBox="0 0 46 46" fill="none" xmlns="http://www.w3.org/2000/svg">
<path d="M13.4167 11.0208C12.6308 11.0208 11.9792 10.3692 11.9792 9.58333V3.83333C11.9792 3.04749 12.6308 2.39583 13.4167 2.39583C14.2025 2.39583 14.8542 3.04749 14.8542 3.83333V9.58333C14.8542 10.3692 14.2025 11.0208 13.4167 11.0208Z" fill="#662FFF"/>
<path d="M28.75 11.0208C27.9642 11.0208 27.3125 10.3692 27.3125 9.58333V3.83333C27.3125 3.04749 27.9642 2.39583 28.75 2.39583C29.5358 2.39583 30.1875 3.04749 30.1875 3.83333V9.58333C30.1875 10.3692 29.5358 11.0208 28.75 11.0208Z" fill="#662FFF"/>
<path opacity="0.4" d="M38.3333 16.2917V32.5833C38.3333 38.3333 35.4583 42.1667 28.75 42.1667H13.4167C6.70834 42.1667 3.83334 38.3333 3.83334 32.5833V16.2917C3.83334 10.5417 6.70834 6.70833 13.4167 6.70833H28.75C35.4583 6.70833 38.3333 10.5417 38.3333 16.2917Z" fill="#662FFF"/>
<path d="M24.9167 22.5208H13.4167C12.6308 22.5208 11.9792 21.8692 11.9792 21.0833C11.9792 20.2975 12.6308 19.6458 13.4167 19.6458H24.9167C25.7025 19.6458 26.3542 20.2975 26.3542 21.0833C26.3542 21.8692 25.7025 22.5208 24.9167 22.5208Z" fill="#662FFF"/>
<path d="M19.1667 32.1042H13.4167C12.6308 32.1042 11.9792 31.4525 11.9792 30.6667C11.9792 29.8808 12.6308 29.2292 13.4167 29.2292H19.1667C19.9525 29.2292 20.6042 29.8808 20.6042 30.6667C20.6042 31.4525 19.9525 32.1042 19.1667 32.1042Z" fill="#662FFF"/>
<path d="M40.25 26.1242C38.5442 24.7634 36.3783 23.9583 34.0208 23.9583C31.6633 23.9583 29.4592 24.7825 27.7342 26.1816C25.415 28.0025 23.9583 30.8583 23.9583 34.0208C23.9583 35.8992 24.495 37.7009 25.415 39.1959C26.1242 40.365 27.0442 41.3808 28.1367 42.1667C29.785 43.3742 31.8167 44.0833 34.0208 44.0833C36.57 44.0833 38.87 43.1442 40.6334 41.5725C41.4192 40.9208 42.09 40.1159 42.6267 39.1959C43.5467 37.7009 44.0833 35.8992 44.0833 34.0208C44.0833 30.82 42.5883 27.9642 40.25 26.1242ZM34.0208 38.8125C34.0208 36.1675 31.8742 34.0208 29.2292 34.0208C31.8742 34.0208 34.0208 31.8742 34.0208 29.2292C34.0208 31.8742 36.1675 34.0208 38.8125 34.0208C36.1675 34.0208 34.0208 36.1675 34.0208 38.8125Z" fill="#662FFF"/>
</svg>
