<svg width="46" height="46" viewBox="0 0 46 46" fill="none" xmlns="http://www.w3.org/2000/svg">
<path opacity="0.4" d="M14.1258 42.1667H31.855C37.0108 42.1667 41.1892 37.9883 41.1892 32.8325V16.0425C41.1892 10.8867 37.0108 6.70834 31.855 6.70834H14.1258C8.96999 6.70834 4.79166 10.8867 4.79166 16.0425V32.8133C4.79166 37.9883 8.96999 42.1667 14.1258 42.1667Z" fill="#662FFF"/>
<path d="M15.8892 12.0558C15.0842 12.0558 14.4517 11.4042 14.4517 10.6183V5.27084C14.4517 4.48501 15.0842 3.83334 15.8892 3.83334C16.6942 3.83334 17.3267 4.48501 17.3267 5.27084V10.5992C17.3267 11.4042 16.6942 12.0558 15.8892 12.0558Z" fill="#662FFF"/>
<path d="M30.1108 12.0558C29.3058 12.0558 28.6733 11.4042 28.6733 10.6183V5.27084C28.6733 4.46584 29.325 3.83334 30.1108 3.83334C30.9158 3.83334 31.5483 4.48501 31.5483 5.27084V10.5992C31.5483 11.4042 30.9158 12.0558 30.1108 12.0558Z" fill="#662FFF"/>
<path d="M28.3283 26.2775H14.1067C13.3017 26.2775 12.6692 25.6258 12.6692 24.84C12.6692 24.0542 13.3208 23.4025 14.1067 23.4025H28.3283C29.1333 23.4025 29.7658 24.0542 29.7658 24.84C29.7658 25.6258 29.1333 26.2775 28.3283 26.2775Z" fill="#662FFF"/>
<path d="M23 33.3883H14.1067C13.3017 33.3883 12.6692 32.7367 12.6692 31.9508C12.6692 31.1458 13.3208 30.5133 14.1067 30.5133H23C23.805 30.5133 24.4375 31.165 24.4375 31.9508C24.4375 32.7367 23.805 33.3883 23 33.3883Z" fill="#662FFF"/>
</svg>
