<svg width="24" height="24" viewBox="0 0 24 24" fill="none" xmlns="http://www.w3.org/2000/svg">
<path opacity="0.4" d="M7.37 22H16.62C19.31 22 21.49 19.82 21.49 17.13V8.37C21.49 5.68 19.31 3.5 16.62 3.5H7.37C4.68 3.5 2.5 5.68 2.5 8.37V17.12C2.5 19.82 4.68 22 7.37 22Z" fill="white"/>
<path d="M8.29004 6.29C7.87004 6.29 7.54004 5.95 7.54004 5.54V2.75C7.54004 2.34 7.87004 2 8.29004 2C8.71004 2 9.04004 2.34 9.04004 2.75V5.53C9.04004 5.95 8.71004 6.29 8.29004 6.29Z" fill="white"/>
<path d="M15.71 6.29C15.29 6.29 14.96 5.95 14.96 5.54V2.75C14.96 2.33 15.3 2 15.71 2C16.13 2 16.46 2.34 16.46 2.75V5.53C16.46 5.95 16.13 6.29 15.71 6.29Z" fill="white"/>
<path d="M14.7801 13.71H7.36011C6.94011 13.71 6.61011 13.37 6.61011 12.96C6.61011 12.55 6.95011 12.21 7.36011 12.21H14.7801C15.2001 12.21 15.5301 12.55 15.5301 12.96C15.5301 13.37 15.2001 13.71 14.7801 13.71Z" fill="white"/>
<path d="M12.0001 17.4199H7.36011C6.94011 17.4199 6.61011 17.0799 6.61011 16.6699C6.61011 16.2499 6.95011 15.9199 7.36011 15.9199H12.0001C12.4201 15.9199 12.7501 16.2599 12.7501 16.6699C12.7501 17.0799 12.4201 17.4199 12.0001 17.4199Z" fill="white"/>
</svg>
