<svg width="46" height="46" viewBox="0 0 46 46" fill="none" xmlns="http://www.w3.org/2000/svg">
<path opacity="0.4" d="M17.25 3.83333C12.2283 3.83333 8.14584 7.91583 8.14584 12.9375C8.14584 17.8633 11.9983 21.85 17.02 22.0225C17.1733 22.0033 17.3267 22.0033 17.4417 22.0225C17.48 22.0225 17.4992 22.0225 17.5375 22.0225C17.5567 22.0225 17.5567 22.0225 17.5758 22.0225C22.4825 21.85 26.335 17.8633 26.3542 12.9375C26.3542 7.91583 22.2717 3.83333 17.25 3.83333Z" fill="#662FFF"/>
<path d="M26.9867 27.1208C21.6392 23.5558 12.9183 23.5558 7.5325 27.1208C5.09833 28.75 3.75667 30.9542 3.75667 33.3117C3.75667 35.6692 5.09833 37.8542 7.51333 39.4642C10.1967 41.2658 13.7233 42.1667 17.25 42.1667C20.7767 42.1667 24.3033 41.2658 26.9867 39.4642C29.4017 37.835 30.7433 35.65 30.7433 33.2733C30.7242 30.9158 29.4017 28.7308 26.9867 27.1208Z" fill="#662FFF"/>
<path opacity="0.4" d="M38.3142 14.0683C38.6208 17.7867 35.9758 21.045 32.315 21.4858C32.2958 21.4858 32.2958 21.4858 32.2767 21.4858H32.2192C32.1042 21.4858 31.9892 21.4858 31.8933 21.5242C30.0342 21.62 28.3283 21.0258 27.0442 19.9333C29.0183 18.17 30.1492 15.525 29.9192 12.65C29.785 11.0975 29.2483 9.67917 28.4433 8.47167C29.1717 8.1075 30.015 7.8775 30.8775 7.80084C34.6342 7.475 37.9883 10.2733 38.3142 14.0683Z" fill="#662FFF"/>
<path d="M42.1475 31.7975C41.9942 33.6567 40.8058 35.2667 38.8125 36.3592C36.8958 37.4133 34.4808 37.9117 32.085 37.8542C33.465 36.6083 34.27 35.0558 34.4233 33.4075C34.615 31.0308 33.4842 28.75 31.2225 26.9292C29.9383 25.9133 28.4433 25.1083 26.8142 24.5142C31.05 23.2875 36.3783 24.1117 39.6558 26.7567C41.4192 28.175 42.32 29.9575 42.1475 31.7975Z" fill="#662FFF"/>
</svg>
