<svg width="46" height="46" viewBox="0 0 46 46" fill="none" xmlns="http://www.w3.org/2000/svg">
<path opacity="0.4" d="M42.1667 14.9692V31.0308C42.1667 38.0075 38.0075 42.1667 31.0308 42.1667H14.9692C7.9925 42.1667 3.83334 38.0075 3.83334 31.0308V14.9692C3.83334 13.9917 3.91 13.0525 4.0825 12.19C5.06 6.91918 8.95084 3.85251 14.8925 3.83334H31.1075C37.0492 3.85251 40.94 6.91918 41.9175 12.19C42.09 13.0525 42.1667 13.9917 42.1667 14.9692Z" fill="#662FFF"/>
<path d="M42.1667 14.9692V15.065H3.83334V14.9692C3.83334 13.9917 3.91 13.0525 4.0825 12.19H14.8925V3.83334H17.7675V12.19H28.2325V3.83334H31.1075V12.19H41.9175C42.09 13.0525 42.1667 13.9917 42.1667 14.9692Z" fill="#662FFF"/>
<path d="M27.6767 24.38L23.69 22.08C22.2142 21.2367 20.7958 21.1217 19.6842 21.7542C18.5725 22.3867 17.9592 23.69 17.9592 25.3767V29.9767C17.9592 31.6633 18.5725 32.9667 19.6842 33.5992C20.1633 33.8675 20.7 34.0017 21.2558 34.0017C22.0225 34.0017 22.8467 33.7525 23.69 33.2733L27.6767 30.9733C29.1525 30.13 29.9575 28.9417 29.9575 27.6575C29.9575 26.3733 29.1333 25.2425 27.6767 24.38Z" fill="#662FFF"/>
</svg>
